# xmcd CD database file
#
# Track frame offsets:
#	150
#	20510
#	41150
#
# Disc length: 818 seconds
#
# Revision: 0
# Processed by: cddbd v1.5.1PL0 Copyright (c) Steve Scherf et al.
# Submitted via: CDex 1.51
#
DISCID=1f033003
DTITLE=久松史奈 - 微笑みながら
DYEAR=1993
DGENRE=JPop
TTITLE0=微笑みながら
TTITLE1=GROWING UP
TTITLE2=微笑みながら(カラオケ)
EXTD=YEAR: 1993
EXTT0=
EXTT1=
EXTT2=
PLAYORDER=
